# xmcd
#
# Track frame offsets: 
#        150
#        22000
#        39745
#        61674
#        84679
#        100596
#        114529
#        132412
#        147567
#        162911
#        181625
#        196231
#
# Disc length: 2893 seconds
#
# Revision: 1
# Processed by: cddbd v1.5.2PL0 Copyright (c) Steve Scherf et al.
# Submitted via: ExactAudioCopy v1.0b3
#
DISCID=9f0b4b0c
DTITLE=Hanne Boel - A new kinda soul
DYEAR=2008
DGENRE=Soul
TTITLE0=Story
TTITLE1=Talk it out
TTITLE2=Wedding day
TTITLE3=Season of the witch
TTITLE4=Don't know much about love
TTITLE5=I'll stand by you
TTITLE6=Heat is on
TTITLE7=No love at all
TTITLE8=Nobody's fault but mine
TTITLE9=Easier said than done
TTITLE10=Comming up
TTITLE11=If you want my body
EXTD=
EXTT0=
EXTT1=
EXTT2=
EXTT3=
EXTT4=
EXTT5=
EXTT6=
EXTT7=
EXTT8=
EXTT9=
EXTT10=
EXTT11=
PLAYORDER=
